<?xml version="1.0" encoding="utf-8"?>
<!-- Generator: Adobe Illustrator 22.0.1, SVG Export Plug-In . SVG Version: 6.00 Build 0)  -->
<svg version="1.1" id="圖層_1" xmlns="http://www.w3.org/2000/svg" xmlns:xlink="http://www.w3.org/1999/xlink" x="0px" y="0px"
	 viewBox="0 0 70 78" style="enable-background:new 0 0 70 78;" xml:space="preserve">
<style type="text/css">
	.st0{fill:#979D9D;}
</style>
<path class="st0" d="M70,73.2v3.5c0,0.7-0.6,1.2-1.2,1.2s-1.2-0.6-1.2-1.2v-3.5c0-6.2-2.7-12.2-7.4-16.3c-0.5-0.5-0.5-1.3,0-1.8
	c0.5-0.5,1.2-0.5,1.7-0.1C67,59.7,70,66.3,70,73.2L70,73.2z M20.4,59.6c-0.5-0.5-1.3-0.4-1.8,0.1c-0.5,0.5-0.4,1.3,0.1,1.8
	c0,0,0,0,0,0l0.5,0.4c0.5,0.4,1.3,0.4,1.8-0.1c0.4-0.5,0.4-1.3-0.1-1.8L20.4,59.6z M54.7,58.5c0.5-0.4,0.6-1.2,0.1-1.8
	c-0.4-0.5-1.2-0.6-1.8-0.1c0,0,0,0,0,0L35,72l-11.1-9.5c-0.5-0.4-1.3-0.4-1.8,0.1s-0.4,1.3,0.1,1.8c0,0,0,0,0,0l11.5,9.8v2.5
	c0,0.7,0.6,1.2,1.2,1.2s1.2-0.6,1.2-1.2v-2.5L54.7,58.5z M28.2,38.1c-3.1,0-5.7-2.5-5.7-5.7c0-3.1,2.5-5.7,5.7-5.7
	c1.8,0,3.5,0.8,4.6,2.3c1.4-0.6,3-0.6,4.5,0c1.9-2.5,5.4-2.9,7.9-1c2.5,1.9,2.9,5.4,1,7.9c-1.9,2.5-5.4,2.9-7.9,1
	c-1.7-1.3-2.5-3.5-2.1-5.6c-0.8-0.3-1.6-0.3-2.4,0c0.6,3.1-1.3,6.1-4.4,6.7C29,38.1,28.6,38.1,28.2,38.1z M38.6,32.4
	c0,1.8,1.4,3.2,3.2,3.2s3.2-1.4,3.2-3.2c0-1.8-1.4-3.2-3.2-3.2c0,0,0,0,0,0C40,29.2,38.6,30.7,38.6,32.4z M31.4,32.4
	c0-1.8-1.4-3.2-3.2-3.2S25,30.7,25,32.4c0,1.8,1.4,3.2,3.2,3.2c0,0,0,0,0,0C30,35.6,31.4,34.2,31.4,32.4L31.4,32.4z M16.1,69.3
	c-0.7,0-1.2,0.6-1.2,1.2v6.2c0,0.7,0.6,1.2,1.2,1.2c0.7,0,1.2-0.6,1.2-1.2v-6.2C17.3,69.9,16.7,69.3,16.1,69.3z M53.9,69.3
	c-0.7,0-1.2,0.6-1.2,1.2v6.2c0,0.7,0.6,1.2,1.2,1.2c0.7,0,1.2-0.6,1.2-1.2v-6.2C55.2,69.9,54.6,69.3,53.9,69.3z M40.7,46.6
	c0.6-0.3,0.8-1.1,0.5-1.7c-0.3-0.6-1.1-0.8-1.7-0.5c-1.4,0.7-2.9,1-4.5,0.9c-1.6,0.1-3.1-0.3-4.5-0.9c-0.6-0.3-1.4-0.1-1.7,0.5
	c-0.3,0.6-0.1,1.4,0.5,1.7c1.8,0.9,3.7,1.3,5.7,1.2C37,48,38.9,47.5,40.7,46.6L40.7,46.6z M59.6,37c-0.4,0.2-0.9,0.2-1.3,0l-0.5-0.3
	c-0.9,2.5-3.1,4.3-5.7,4.7c-0.2,2.5-1,5-2.4,7.1c3,0.8,5.8,2.1,8.4,3.7c0.6,0.4,0.8,1.1,0.4,1.7c-0.4,0.6-1.1,0.8-1.7,0.4
	c0,0,0,0,0,0c-1.3-0.9-2.7-1.6-4.2-2.2l-10.6,9.2c-0.5,0.4-1.3,0.4-1.7-0.1L35,55.6l-5.2,5.5c-0.5,0.5-1.2,0.5-1.7,0.1l-7.4-6.4
	c-0.5-0.5-0.6-1.2-0.1-1.8c0.4-0.5,1.2-0.6,1.7-0.1l6.5,5.6l3.3-3.5c-3.8-0.1-7.4-1.7-10.1-4.5c-2.9,0.7-5.7,1.8-8.3,3.4l3.1,2.6
	c0.5,0.4,0.6,1.2,0.1,1.8c-0.4,0.5-1.2,0.6-1.8,0.1c0,0,0,0,0,0l-3.6-3.1c-5.8,4.5-9.2,10.9-9.2,17.8v3.5c0,0.7-0.6,1.2-1.2,1.2
	C0.6,78,0,77.4,0,76.7v-3.5c0-8,4-15.4,10.9-20.4l0,0l0,0c2.8-2,6-3.5,9.3-4.4c-1.4-2.1-2.2-4.5-2.4-7.1c-4-0.7-6.7-4.4-6.1-8.4
	c0.5-3.1,2.9-5.5,6-6.1c0.1-1.7,0.4-3.4,1-5c-0.1-0.2-0.1-0.4-0.1-0.6v-8.6l-7.3-2.4c-0.7-0.2-1-0.9-0.8-1.6
	c0.1-0.4,0.4-0.7,0.8-0.8l8.1-2.7c0.6-0.2,1.4,0.1,1.6,0.8c0.2,0.6-0.1,1.4-0.8,1.6c0,0,0,0,0,0L15.8,9L35,15.4L54.2,9L35,2.6
	l-9.9,3.3c-0.6,0.2-1.4-0.1-1.6-0.8c-0.2-0.6,0.1-1.4,0.8-1.6c0,0,0,0,0,0l10.3-3.5c0.3-0.1,0.5-0.1,0.8,0l23.1,7.8
	c0.7,0.2,1,0.9,0.8,1.6c-0.1,0.4-0.4,0.7-0.8,0.8l-1.2,0.4v15.5H59c0.7,0,1.2,0.6,1.2,1.2l0,0v8.6C60.2,36.4,60,36.8,59.6,37
	L59.6,37z M57.7,28.6h-3.4v5.1l1-0.6c0.4-0.2,0.9-0.2,1.3,0l1,0.6L57.7,28.6z M21.3,13.5v7.1c1.7,0.5,7,1.3,13.7,1.3
	s12.1-0.8,13.7-1.3v-3.8c0-0.7,0.6-1.2,1.2-1.2s1.2,0.6,1.2,1.2l0,0v4.5c0,0.2,0,0.4-0.1,0.6c0.6,1.5,0.9,3.1,1,4.7
	c0.2-0.3,0.6-0.5,1-0.5h1.7V11.4l-19.4,6.5c-0.3,0.1-0.5,0.1-0.8,0L21.3,13.5z M17.9,38.8v-9.4c-2.6,0.7-4.1,3.3-3.5,5.9
	C14.9,37,16.2,38.3,17.9,38.8L17.9,38.8z M32.6,52.6h4.7c6.8,0,12.3-5.5,12.3-12.3V27.7c0-1.6-0.3-3.2-0.8-4.7
	c-0.8,0.2-1.8,0.4-3.1,0.5c-3.6,0.5-7.2,0.7-10.7,0.7c-3.6,0-7.2-0.2-10.7-0.7c-1.3-0.2-2.3-0.4-3.1-0.5c-0.5,1.5-0.8,3.1-0.8,4.7
	v12.6C20.4,47.1,25.9,52.6,32.6,52.6z M48,50.6c-2.7,2.7-6.3,4.4-10.1,4.5l3.3,3.5l8.7-7.5C49.2,50.9,48.6,50.7,48,50.6L48,50.6z
	 M55.4,36l-1.6,1c-0.4,0.2-0.9,0.2-1.3,0c-0.1-0.1-0.3-0.2-0.3-0.3v2.1C53.6,38.4,54.8,37.4,55.4,36L55.4,36z"/>
</svg>
